{"title":"It's the Great Pumpkin, Charlie Brown (1966) x264 ukr sub","uid":9673316,"size":176997009,"categoryP":"video","categoryS":"other","magnet":"?xt=urn:btih:e4c1eff78390537794f41890f9900e722dc155ac&amp;dn=+It%27s+the+Great+Pumpkin%2C+Charlie+Brown+%281966%29+x264+ukr+sub&amp;tr=udp%3A%2F%2Ftracker.openbittorrent.com%3A80&amp;tr=udp%3A%2F%2Fopen.demonii.com%3A1337&amp;tr=udp%3A%2F%2Ftracker.coppersurfer.tk%3A6969&amp;tr=udp%3A%2F%2Fexodus.desync.com%3A6969","seeders":1,"leechers":0,"uploader":"orysia","files":-1,"time":1393509880,"description":" &lt;a href=&quot;http://www.imdb.com/title/tt0060550/?ref_=nv_sr_1&quot; rel=&quot;nofollow&quot; target=&quot;_NEW&quot;&gt;http://www.imdb.com/title/tt0060550/?ref_=nv_sr_1&lt;/a&gt;\n\nAnimation | Short | Comedy\n\n\nDirector: Bill Melendez\nWriter: Charles M. Schulz\nStars: Peter Robbins, Christopher Shea, Sally Dryer\n\nThe Peanuts gang celebrates Halloween, with Linus hoping that, finally, he will be visited by The Great Pumpkin; while Charlie Brown is invited to a Halloween party. \n\nFormat                                   : MPEG-4\nFormat profile                           : Base Media\nCodec ID                                 : isom\nFile size                                : 169 MiB\nDuration                                 : 25mn 16s\nOverall bit rate mode                    : Variable\nOverall bit rate                         : 934 Kbps\nMovie name                               : It's The Great Pumpkin, Charlie Brown*1966 /antusyrzhuk\nGenre                                    : Comedy\nRecorded date                            : 1966\nEncoded date                             : UTC 2014-02-26 11:04:57\nTagged date                              : UTC 2014-02-26 11:04:57\nWriting application                      : Yamb 2.0.0.8 [http://yamb.unite-video.com]\nComment                                  : http://cinemasterpiece(dot)wordpress(dot)com/\n\nVideo\nID                                       : 1\nFormat                                   : AVC\nFormat/Info                              : Advanced Video Codec\nFormat profile                           : &lt;a class=&quot;__cf_email__&quot; href=&quot;/cdn-cgi/l/email-protection&quot; data-cfemail=&quot;da97bbb3b49a96e9f4eb&quot;&gt;[email&amp;#160;protected]&lt;/a&gt;&lt;script cf-hash='f9e31' type=&quot;text/javascript&quot;&gt;\n/* &lt;![CDATA[ */!function(){try{var t=&quot;currentScript&quot;in document?document.currentScript:function(){for(var t=document.getElementsByTagName(&quot;script&quot;),e=t.length;e--;)if(t[e].getAttribute(&quot;cf-hash&quot;))return t[e]}();if(t&amp;&amp;t.previousSibling){var e,r,n,i,c=t.previousSibling,a=c.getAttribute(&quot;data-cfemail&quot;);if(a){for(e=&quot;&quot;,r=parseInt(a.substr(0,2),16),n=2;a.length-n;n+=2)i=parseInt(a.substr(n,2),16)^r,e+=String.fromCharCode(i);e=document.createTextNode(e),c.parentNode.replaceChild(e,c)}}}catch(u){}}();/* ]]&gt; */&lt;/script&gt;\nFormat settings, CABAC                   : Yes\nFormat settings, ReFrames                : 12 frames\nCodec ID                                 : avc1\nCodec ID/Info                            : Advanced Video Coding\nDuration                                 : 25mn 16s\nBit rate                                 : 849 Kbps\nMaximum bit rate                         : 3 042 Kbps\nWidth                                    : 674 pixels\nHeight                                   : 462 pixels\nDisplay aspect ratio                     : 3:2\nFrame rate mode                          : Constant\nFrame rate                               : 23.976 fps\nColor space                              : YUV\nChroma subsampling                       : 4:2:0\nBit depth                                : 8 bits\nScan type                                : Progressive\nBits/(Pixel*Frame)                       : 0.114\nStream size                              : 154 MiB (91%)\nWriting library                          : x264 core 142 r2389 956c8d8\nEncoding settings                        : cabac=1 / ref=12 / deblock=1:1:1 / analyse=0x1:0x111 / me=umh / subme=8 / psy=1 / psy_rd=0.40:0.00 / mixed_ref=1 / me_range=16 / chroma_me=1 / trellis=1 / 8x8dct=0 / cqm=0 / deadzone=21,11 / fast_pskip=1 / chroma_qp_offset=-2 / threads=3 / lookahead_threads=1 / sliced_threads=0 / nr=0 / decimate=1 / interlaced=0 / bluray_compat=0 / constrained_intra=0 / bframes=5 / b_pyramid=2 / b_adapt=2 / b_bias=0 / direct=3 / weightb=1 / open_gop=0 / weightp=2 / keyint=240 / keyint_min=23 / scenecut=30 / intra_refresh=0 / rc_lookahead=50 / rc=2pass / mbtree=1 / bitrate=849 / ratetol=1.0 / qcomp=0.60 / qpmin=0 / qpmax=69 / qpstep=4 / cplxblur=20.0 / qblur=0.5 / vbv_maxrate=14000 / vbv_bufsize=14000 / nal_hrd=none / filler=0 / ip_ratio=1.40 / aq=1:0.60\nEncoded date                             : UTC 2014-02-26 11:04:57\nTagged date                              : UTC 2014-02-26 11:05:01\n\nAudio\nID                                       : 2\nFormat                                   : AAC\nFormat/Info                              : Advanced Audio Codec\nFormat profile                           : LC\nCodec ID                                 : 40\nDuration                                 : 25mn 16s\nBit rate mode                            : Variable\nBit rate                                 : 79.9 Kbps\nMaximum bit rate                         : 126 Kbps\nChannel(s)                               : 2 channels\nChannel positions                        : Front: L R\nSampling rate                            : 48.0 KHz\nCompression mode                         : Lossy\nStream size                              : 14.5 MiB (9%)\nLanguage                                 : English\nEncoded date                             : UTC 2014-02-26 11:05:00\nTagged date                              : UTC 2014-02-26 11:05:01\n\nUkrainian subtitles are HARDCODED\n\nScreenshots: &lt;a href=&quot;\nhttp://s26.postimg.org/9otnw8ill/It_s_The_Great_Pumpkin_Charlie_Brown_1966_mp4_s.png&quot; rel=&quot;nofollow&quot; target=&quot;_NEW&quot;&gt;\nhttp://s26.postimg.org/9otnw8ill/It_s_The_Great_Pumpkin_Charlie_Brown_1966_mp4_s.png&lt;/a&gt; &lt;a href=&quot;\nhttp://s26.postimg.org/7vqr7wxex/It_s_The_Great_Pumpkin_Charlie_Brown_1966_mp4_s.png&quot; rel=&quot;nofollow&quot; target=&quot;_NEW&quot;&gt;\nhttp://s26.postimg.org/7vqr7wxex/It_s_The_Great_Pumpkin_Charlie_Brown_1966_mp4_s.png&lt;/a&gt; &lt;a href=&quot;\nhttp://s26.postimg.org/qzk2o9a95/It_s_The_Great_Pumpkin_Charlie_Brown_1966_mp4_s.png&quot; rel=&quot;nofollow&quot; target=&quot;_NEW&quot;&gt;\nhttp://s26.postimg.org/qzk2o9a95/It_s_The_Great_Pumpkin_Charlie_Brown_1966_mp4_s.png&lt;/a&gt; &lt;a href=&quot;\nhttp://s26.postimg.org/pvzycapm1/It_s_The_Great_Pumpkin_Charlie_Brown_1966_mp4_s.png&quot; rel=&quot;nofollow&quot; target=&quot;_NEW&quot;&gt;\nhttp://s26.postimg.org/pvzycapm1/It_s_The_Great_Pumpkin_Charlie_Brown_1966_mp4_s.png&lt;/a&gt; &lt;a href=&quot;\nhttp://postimg.org/image/8ntf741lx/&quot; rel=&quot;nofollow&quot; target=&quot;_NEW&quot;&gt;\nhttp://postimg.org/image/8ntf741lx/&lt;/a&gt;\n","torrent":{"xt":"urn:btih:e4c1eff78390537794f41890f9900e722dc155ac","amp;dn":"+It%27s+the+Great+Pumpkin%2C+Charlie+Brown+%281966%29+x264+ukr+sub","amp;tr":["udp%3A%2F%2Ftracker.openbittorrent.com%3A80","udp%3A%2F%2Fopen.demonii.com%3A1337","udp%3A%2F%2Ftracker.coppersurfer.tk%3A6969","udp%3A%2F%2Fexodus.desync.com%3A6969"],"infoHash":"e4c1eff78390537794f41890f9900e722dc155ac","infoHashBuffer":{"type":"Buffer","data":[228,193,239,247,131,144,83,119,148,244,24,144,249,144,14,114,45,193,85,172]},"announce":[],"urlList":[]}}